<svg width="688" height="216" viewBox="0 0 688 216" fill="none" xmlns="http://www.w3.org/2000/svg">
<path d="M0.333333 129.05C0.333333 134.941 5.10896 139.717 11 139.717C16.891 139.717 21.6667 134.941 21.6667 129.05C21.6667 123.159 16.891 118.383 11 118.383C5.10896 118.383 0.333333 123.159 0.333333 129.05ZM213.748 49.6668L215.329 48.442L213.748 49.6668ZM577.728 176.507L577.17 174.587L577.728 176.507ZM687.5 84L666.056 92.5728L684.202 106.857L687.5 84ZM11 129.05C12.3954 130.483 12.3957 130.482 12.3966 130.482C12.3976 130.48 12.3991 130.479 12.4012 130.477C12.4054 130.473 12.4119 130.467 12.4206 130.458C12.4381 130.441 12.4647 130.415 12.5002 130.381C12.5712 130.312 12.6781 130.209 12.8197 130.073C13.1031 129.801 13.5258 129.396 14.0802 128.87C15.1892 127.819 16.825 126.283 18.927 124.351C23.1313 120.486 29.1988 115.036 36.6435 108.705C51.5393 96.038 71.9195 79.8674 93.901 65.8043C115.916 51.7194 139.38 39.8521 160.466 35.638C181.493 31.4356 199.768 34.8859 212.167 50.8915L215.329 48.442C201.66 30.796 181.558 27.3433 159.682 31.7156C137.864 36.076 113.9 48.261 91.7454 62.4348C69.5569 76.6304 49.0254 92.925 34.0522 105.658C26.5623 112.027 20.4559 117.512 16.2199 121.406C14.1018 123.353 12.4509 124.903 11.3281 125.968C10.7667 126.5 10.3373 126.911 10.0476 127.189C9.90267 127.329 9.79268 127.435 9.71853 127.507C9.68146 127.542 9.65335 127.57 9.63432 127.588C9.6248 127.597 9.61755 127.604 9.61259 127.609C9.61011 127.612 9.60811 127.614 9.60687 127.615C9.60544 127.616 9.60458 127.617 11 129.05ZM405.205 135.978C413.572 137.224 424.273 141.609 436.888 147.364C449.4 153.072 463.698 160.078 478.946 166.296C509.434 178.73 544.344 188.291 578.286 178.428L577.17 174.587C544.587 184.055 510.761 174.951 480.456 162.592C465.307 156.415 451.194 149.493 438.549 143.725C426.007 138.004 414.806 133.364 405.795 132.022L405.205 135.978ZM578.286 178.428C598.344 172.599 618.524 158.519 635.976 143.16C653.463 127.771 668.38 110.946 677.907 99.4188L674.824 96.8706C665.371 108.309 650.604 124.96 633.334 140.158C616.03 155.386 596.381 169.004 577.17 174.587L578.286 178.428ZM212.167 50.8915C237.733 83.8967 236.747 125.003 235.846 158.004C235.622 166.21 235.406 173.94 235.632 180.849C235.858 187.747 236.528 193.968 238.133 199.138C239.746 204.332 242.349 208.609 246.531 211.399C250.705 214.184 256.173 215.301 263.147 214.741L262.826 210.754C256.418 211.269 251.94 210.199 248.751 208.071C245.57 205.949 243.392 202.587 241.953 197.952C240.506 193.293 239.852 187.494 239.63 180.718C239.409 173.953 239.62 166.354 239.845 158.113C240.74 125.324 241.897 82.7402 215.329 48.442L212.167 50.8915ZM263.147 214.741C276.973 213.63 290.711 207.672 303.986 199.61C317.269 191.544 330.248 181.269 342.536 171.377C354.875 161.445 366.477 151.934 377.162 145.208C387.914 138.439 397.279 134.798 405.205 135.978L405.795 132.022C396.342 130.614 385.895 134.984 375.031 141.823C364.1 148.704 352.281 158.398 340.028 168.261C327.723 178.166 314.936 188.28 301.91 196.191C288.876 204.106 275.763 209.714 262.826 210.754L263.147 214.741Z" fill="white"/>
<path d="M490.657 208.657L486.414 212.9C486.228 213.086 486.008 213.233 485.766 213.334C485.523 213.434 485.263 213.486 485.001 213.486C484.738 213.486 484.478 213.434 484.235 213.334C483.993 213.233 483.773 213.086 483.587 212.9L479.343 208.657C478.224 207.538 477.462 206.113 477.154 204.561C476.845 203.009 477.003 201.401 477.609 199.939C478.215 198.477 479.24 197.228 480.555 196.349C481.871 195.469 483.418 195 485 195C486.582 195 488.129 195.469 489.445 196.349C490.76 197.228 491.785 198.477 492.391 199.939C492.997 201.401 493.155 203.009 492.846 204.561C492.538 206.113 491.776 207.538 490.657 208.657V208.657Z" stroke="white" stroke-width="2" stroke-linecap="round" stroke-linejoin="round"/>
<path d="M487.121 205.121C487.684 204.559 488 203.796 488 203C488 202.204 487.684 201.441 487.121 200.879C486.559 200.316 485.796 200 485 200C484.204 200 483.441 200.316 482.879 200.879C482.316 201.441 482 202.204 482 203C482 203.796 482.316 204.559 482.879 205.121C483.441 205.684 484.204 206 485 206C485.796 206 486.559 205.684 487.121 205.121Z" stroke="white" stroke-width="2" stroke-linecap="round" stroke-linejoin="round"/>
<path d="M508.438 211V197.909H516.556V199.609H510.413V203.598H515.974V205.292H510.413V211H508.438ZM521.654 211.217C521.032 211.217 520.469 211.102 519.966 210.872C519.463 210.638 519.065 210.299 518.771 209.856C518.481 209.413 518.336 208.869 518.336 208.226C518.336 207.672 518.443 207.216 518.656 206.858C518.869 206.5 519.157 206.217 519.519 206.008C519.881 205.799 520.286 205.641 520.733 205.535C521.181 205.428 521.637 205.347 522.101 205.292C522.689 205.224 523.167 205.168 523.533 205.126C523.9 205.079 524.166 205.004 524.332 204.902C524.498 204.8 524.581 204.634 524.581 204.403V204.359C524.581 203.8 524.424 203.368 524.108 203.061C523.797 202.754 523.333 202.601 522.715 202.601C522.071 202.601 521.564 202.744 521.194 203.029C520.827 203.31 520.574 203.624 520.433 203.969L518.637 203.56C518.85 202.963 519.161 202.482 519.57 202.115C519.983 201.744 520.458 201.476 520.995 201.31C521.532 201.139 522.097 201.054 522.689 201.054C523.081 201.054 523.497 201.101 523.936 201.195C524.379 201.284 524.792 201.45 525.176 201.693C525.564 201.936 525.881 202.283 526.128 202.735C526.375 203.183 526.499 203.764 526.499 204.48V211H524.632V209.658H524.556C524.432 209.905 524.247 210.148 524 210.386C523.752 210.625 523.435 210.823 523.047 210.981C522.659 211.138 522.195 211.217 521.654 211.217ZM522.069 209.683C522.598 209.683 523.049 209.579 523.424 209.37C523.804 209.161 524.091 208.888 524.287 208.552C524.488 208.211 524.588 207.847 524.588 207.459V206.193C524.52 206.261 524.387 206.325 524.191 206.385C524 206.44 523.78 206.489 523.533 206.532C523.286 206.57 523.045 206.607 522.811 206.641C522.576 206.67 522.38 206.696 522.223 206.717C521.852 206.764 521.513 206.843 521.206 206.954C520.904 207.065 520.661 207.224 520.478 207.433C520.299 207.638 520.209 207.911 520.209 208.251C520.209 208.724 520.384 209.082 520.733 209.325C521.083 209.564 521.528 209.683 522.069 209.683ZM533.628 201.182V202.716H528.265V201.182H533.628ZM529.703 198.83H531.614V208.117C531.614 208.488 531.67 208.767 531.78 208.955C531.891 209.138 532.034 209.263 532.209 209.332C532.388 209.396 532.581 209.428 532.79 209.428C532.944 209.428 533.078 209.417 533.193 209.396C533.308 209.374 533.398 209.357 533.461 209.344L533.807 210.923C533.696 210.966 533.538 211.009 533.334 211.051C533.129 211.098 532.873 211.124 532.567 211.128C532.064 211.136 531.595 211.047 531.16 210.859C530.726 210.672 530.374 210.382 530.106 209.99C529.837 209.598 529.703 209.106 529.703 208.513V198.83ZM539.868 211.198C538.901 211.198 538.067 210.991 537.369 210.578C536.674 210.161 536.137 209.575 535.758 208.82C535.383 208.062 535.195 207.173 535.195 206.155C535.195 205.149 535.383 204.263 535.758 203.496C536.137 202.729 536.665 202.13 537.343 201.7C538.025 201.269 538.822 201.054 539.734 201.054C540.288 201.054 540.825 201.146 541.344 201.329C541.864 201.512 542.331 201.8 542.744 202.192C543.158 202.584 543.484 203.093 543.722 203.719C543.961 204.342 544.08 205.098 544.08 205.989V206.666H536.276V205.234H542.207C542.207 204.732 542.105 204.286 541.901 203.898C541.696 203.506 541.408 203.197 541.038 202.972C540.671 202.746 540.241 202.633 539.746 202.633C539.21 202.633 538.741 202.765 538.34 203.029C537.944 203.289 537.637 203.63 537.42 204.052C537.207 204.469 537.1 204.923 537.1 205.413V206.532C537.1 207.188 537.215 207.746 537.445 208.207C537.68 208.667 538.006 209.018 538.423 209.261C538.841 209.5 539.329 209.619 539.887 209.619C540.249 209.619 540.58 209.568 540.878 209.466C541.176 209.359 541.434 209.202 541.651 208.993C541.869 208.784 542.035 208.526 542.15 208.219L543.959 208.545C543.814 209.078 543.554 209.545 543.179 209.945C542.808 210.342 542.342 210.651 541.779 210.872C541.221 211.089 540.584 211.198 539.868 211.198ZM548.112 205.17V211H546.201V197.909H548.086V202.78H548.208C548.438 202.251 548.79 201.832 549.263 201.521C549.736 201.21 550.354 201.054 551.116 201.054C551.79 201.054 552.378 201.192 552.881 201.469C553.388 201.746 553.78 202.16 554.057 202.71C554.338 203.255 554.479 203.937 554.479 204.755V211H552.567V204.985C552.567 204.265 552.382 203.707 552.011 203.31C551.64 202.91 551.125 202.71 550.464 202.71C550.013 202.71 549.608 202.805 549.25 202.997C548.896 203.189 548.617 203.47 548.412 203.841C548.212 204.207 548.112 204.651 548.112 205.17ZM557.029 214.682V201.182H558.895V202.773H559.055C559.166 202.569 559.326 202.332 559.535 202.064C559.743 201.795 560.033 201.561 560.404 201.361C560.775 201.156 561.265 201.054 561.874 201.054C562.667 201.054 563.374 201.254 563.996 201.655C564.618 202.055 565.106 202.633 565.46 203.387C565.818 204.141 565.997 205.049 565.997 206.11C565.997 207.171 565.82 208.081 565.466 208.839C565.113 209.594 564.627 210.175 564.009 210.585C563.391 210.989 562.686 211.192 561.893 211.192C561.297 211.192 560.809 211.092 560.43 210.891C560.055 210.691 559.76 210.457 559.547 210.188C559.334 209.92 559.17 209.681 559.055 209.472H558.94V214.682H557.029ZM558.902 206.091C558.902 206.781 559.002 207.386 559.202 207.906C559.403 208.426 559.692 208.833 560.072 209.127C560.451 209.417 560.915 209.562 561.465 209.562C562.036 209.562 562.513 209.411 562.897 209.108C563.28 208.801 563.57 208.386 563.766 207.862C563.966 207.337 564.067 206.747 564.067 206.091C564.067 205.443 563.969 204.862 563.773 204.346C563.581 203.83 563.291 203.423 562.903 203.125C562.52 202.827 562.04 202.678 561.465 202.678C560.911 202.678 560.442 202.82 560.059 203.106C559.68 203.391 559.392 203.79 559.196 204.301C559 204.812 558.902 205.409 558.902 206.091ZM574.358 206.928V201.182H576.275V211H574.396V209.3H574.294C574.068 209.824 573.706 210.261 573.207 210.61C572.713 210.955 572.097 211.128 571.36 211.128C570.729 211.128 570.171 210.989 569.685 210.712C569.204 210.431 568.824 210.016 568.547 209.466C568.275 208.916 568.138 208.237 568.138 207.427V201.182H570.05V207.197C570.05 207.866 570.235 208.398 570.606 208.795C570.976 209.191 571.458 209.389 572.05 209.389C572.408 209.389 572.764 209.3 573.118 209.121C573.476 208.942 573.772 208.671 574.006 208.309C574.245 207.947 574.362 207.487 574.358 206.928ZM578.843 211V201.182H580.691V202.741H580.793C580.972 202.213 581.287 201.798 581.739 201.495C582.195 201.188 582.711 201.035 583.286 201.035C583.405 201.035 583.546 201.039 583.708 201.048C583.874 201.056 584.004 201.067 584.098 201.08V202.908C584.021 202.886 583.885 202.863 583.689 202.837C583.493 202.808 583.297 202.793 583.1 202.793C582.649 202.793 582.246 202.888 581.892 203.08C581.543 203.268 581.266 203.53 581.061 203.866C580.857 204.199 580.755 204.578 580.755 205.004V211H578.843ZM597.809 201.348C597.74 200.743 597.459 200.274 596.965 199.942C596.471 199.605 595.848 199.437 595.098 199.437C594.561 199.437 594.097 199.522 593.705 199.692C593.313 199.859 593.008 200.089 592.791 200.383C592.578 200.673 592.471 201.003 592.471 201.374C592.471 201.685 592.544 201.953 592.689 202.179C592.838 202.405 593.032 202.594 593.27 202.748C593.513 202.897 593.773 203.023 594.05 203.125C594.327 203.223 594.593 203.304 594.849 203.368L596.127 203.7C596.545 203.803 596.973 203.941 597.412 204.116C597.851 204.29 598.258 204.521 598.633 204.806C599.008 205.092 599.311 205.445 599.541 205.867C599.775 206.289 599.892 206.794 599.892 207.382C599.892 208.124 599.701 208.782 599.317 209.357C598.938 209.933 598.386 210.386 597.662 210.719C596.941 211.051 596.07 211.217 595.047 211.217C594.067 211.217 593.219 211.062 592.503 210.751C591.787 210.44 591.227 209.999 590.822 209.428C590.417 208.852 590.194 208.17 590.151 207.382H592.132C592.171 207.855 592.324 208.249 592.593 208.565C592.865 208.876 593.213 209.108 593.635 209.261C594.061 209.411 594.527 209.485 595.034 209.485C595.593 209.485 596.089 209.398 596.524 209.223C596.963 209.044 597.308 208.797 597.559 208.482C597.811 208.162 597.936 207.789 597.936 207.363C597.936 206.975 597.826 206.658 597.604 206.411C597.387 206.163 597.091 205.959 596.716 205.797C596.345 205.635 595.925 205.492 595.456 205.369L593.909 204.947C592.861 204.661 592.03 204.241 591.417 203.688C590.807 203.134 590.502 202.401 590.502 201.489C590.502 200.734 590.707 200.076 591.116 199.513C591.525 198.951 592.079 198.514 592.778 198.203C593.477 197.888 594.265 197.73 595.143 197.73C596.029 197.73 596.811 197.886 597.489 198.197C598.171 198.508 598.708 198.936 599.1 199.482C599.492 200.023 599.696 200.645 599.713 201.348H597.809ZM602.099 211V201.182H604.01V211H602.099ZM603.064 199.667C602.732 199.667 602.447 199.556 602.208 199.335C601.974 199.109 601.856 198.84 601.856 198.529C601.856 198.214 601.974 197.945 602.208 197.724C602.447 197.498 602.732 197.385 603.064 197.385C603.397 197.385 603.68 197.498 603.915 197.724C604.153 197.945 604.273 198.214 604.273 198.529C604.273 198.84 604.153 199.109 603.915 199.335C603.68 199.556 603.397 199.667 603.064 199.667ZM608.339 207.67L608.327 205.337H608.659L612.571 201.182H614.859L610.398 205.912H610.097L608.339 207.67ZM606.582 211V197.909H608.493V211H606.582ZM612.782 211L609.266 206.334L610.583 204.998L615.128 211H612.782ZM616.601 211V201.182H618.449V202.741H618.551C618.73 202.213 619.045 201.798 619.497 201.495C619.953 201.188 620.468 201.035 621.044 201.035C621.163 201.035 621.304 201.039 621.466 201.048C621.632 201.056 621.762 201.067 621.855 201.08V202.908C621.779 202.886 621.642 202.863 621.446 202.837C621.25 202.808 621.054 202.793 620.858 202.793C620.407 202.793 620.004 202.888 619.65 203.08C619.301 203.268 619.024 203.53 618.819 203.866C618.615 204.199 618.512 204.578 618.512 205.004V211H616.601ZM623.509 211V201.182H625.421V211H623.509ZM624.475 199.667C624.142 199.667 623.857 199.556 623.618 199.335C623.384 199.109 623.267 198.84 623.267 198.529C623.267 198.214 623.384 197.945 623.618 197.724C623.857 197.498 624.142 197.385 624.475 197.385C624.807 197.385 625.09 197.498 625.325 197.724C625.563 197.945 625.683 198.214 625.683 198.529C625.683 198.84 625.563 199.109 625.325 199.335C625.09 199.556 624.807 199.667 624.475 199.667Z" fill="white"/>
<path d="M130.657 16.657L126.414 20.9C126.228 21.0858 126.008 21.2331 125.766 21.3336C125.523 21.4342 125.263 21.4859 125.001 21.4859C124.738 21.4859 124.478 21.4342 124.235 21.3336C123.993 21.2331 123.773 21.0858 123.587 20.9L119.343 16.657C118.224 15.5382 117.462 14.1127 117.154 12.5609C116.845 11.009 117.003 9.40053 117.609 7.93874C118.215 6.47696 119.24 5.22755 120.555 4.34852C121.871 3.46949 123.418 3.00031 125 3.00031C126.582 3.00031 128.129 3.46949 129.445 4.34852C130.76 5.22755 131.785 6.47696 132.391 7.93874C132.997 9.40053 133.155 11.009 132.846 12.5609C132.538 14.1127 131.776 15.5382 130.657 16.657V16.657Z" stroke="white" stroke-width="2" stroke-linecap="round" stroke-linejoin="round"/>
<path d="M127.121 13.1213C127.684 12.5587 128 11.7956 128 11C128 10.2044 127.684 9.44129 127.121 8.87868C126.559 8.31607 125.796 8 125 8C124.204 8 123.441 8.31607 122.879 8.87868C122.316 9.44129 122 10.2044 122 11C122 11.7956 122.316 12.5587 122.879 13.1213C123.441 13.6839 124.204 14 125 14C125.796 14 126.559 13.6839 127.121 13.1213Z" stroke="white" stroke-width="2" stroke-linecap="round" stroke-linejoin="round"/>
<path d="M147.793 7.60938V5.90909H157.924V7.60938H153.839V19H151.871V7.60938H147.793ZM161.531 19.2173C160.909 19.2173 160.346 19.1023 159.843 18.8722C159.34 18.6378 158.942 18.299 158.648 17.8558C158.358 17.4126 158.213 16.8693 158.213 16.2259C158.213 15.6719 158.32 15.2159 158.533 14.858C158.746 14.5 159.034 14.2166 159.396 14.0078C159.758 13.799 160.163 13.6413 160.61 13.5348C161.058 13.4283 161.514 13.3473 161.978 13.2919C162.566 13.2237 163.044 13.1683 163.41 13.1257C163.776 13.0788 164.043 13.0043 164.209 12.902C164.375 12.7997 164.458 12.6335 164.458 12.4034V12.3587C164.458 11.8004 164.301 11.3679 163.985 11.0611C163.674 10.7543 163.21 10.6009 162.592 10.6009C161.948 10.6009 161.441 10.7436 161.07 11.0291C160.704 11.3104 160.45 11.6236 160.31 11.9688L158.514 11.5597C158.727 10.9631 159.038 10.4815 159.447 10.1151C159.86 9.74432 160.335 9.47585 160.872 9.30966C161.409 9.1392 161.974 9.05398 162.566 9.05398C162.958 9.05398 163.374 9.10085 163.813 9.1946C164.256 9.28409 164.669 9.45028 165.053 9.69318C165.441 9.93608 165.758 10.2834 166.005 10.7351C166.252 11.1825 166.376 11.7642 166.376 12.4801V19H164.509V17.6577H164.433C164.309 17.9048 164.124 18.1477 163.877 18.3864C163.629 18.625 163.312 18.8232 162.924 18.9808C162.536 19.1385 162.072 19.2173 161.531 19.2173ZM161.946 17.6832C162.475 17.6832 162.926 17.5788 163.301 17.37C163.681 17.1612 163.968 16.8885 164.164 16.5518C164.365 16.2109 164.465 15.8466 164.465 15.4588V14.1932C164.396 14.2614 164.264 14.3253 164.068 14.3849C163.877 14.4403 163.657 14.4893 163.41 14.532C163.163 14.5703 162.922 14.6065 162.688 14.6406C162.453 14.6705 162.257 14.696 162.1 14.7173C161.729 14.7642 161.39 14.843 161.083 14.9538C160.781 15.0646 160.538 15.2244 160.355 15.4332C160.176 15.6378 160.086 15.9105 160.086 16.2514C160.086 16.7244 160.261 17.0824 160.61 17.3253C160.96 17.5639 161.405 17.6832 161.946 17.6832ZM168.922 9.18182H170.833V19.6392C170.833 20.2955 170.713 20.8494 170.475 21.3011C170.24 21.7528 169.891 22.0959 169.426 22.3303C168.966 22.5646 168.397 22.6818 167.72 22.6818C167.652 22.6818 167.588 22.6818 167.528 22.6818C167.464 22.6818 167.398 22.6797 167.33 22.6754V21.0327C167.39 21.0327 167.443 21.0327 167.49 21.0327C167.532 21.0327 167.581 21.0327 167.637 21.0327C168.088 21.0327 168.414 20.9112 168.615 20.6683C168.819 20.4297 168.922 20.0824 168.922 19.6264V9.18182ZM169.868 7.6669C169.535 7.6669 169.25 7.55611 169.011 7.33452C168.777 7.10866 168.659 6.8402 168.659 6.52912C168.659 6.21378 168.777 5.94531 169.011 5.72372C169.25 5.49787 169.535 5.38494 169.868 5.38494C170.2 5.38494 170.483 5.49787 170.718 5.72372C170.956 5.94531 171.076 6.21378 171.076 6.52912C171.076 6.8402 170.956 7.10866 170.718 7.33452C170.483 7.55611 170.2 7.6669 169.868 7.6669ZM178.321 5.90909H180.718L184.886 16.0852H185.039L189.207 5.90909H191.604V19H189.724V9.52699H189.603L185.742 18.9808H184.183L180.322 9.5206H180.2V19H178.321V5.90909ZM197.179 19.2173C196.557 19.2173 195.994 19.1023 195.492 18.8722C194.989 18.6378 194.59 18.299 194.296 17.8558C194.007 17.4126 193.862 16.8693 193.862 16.2259C193.862 15.6719 193.968 15.2159 194.181 14.858C194.394 14.5 194.682 14.2166 195.044 14.0078C195.406 13.799 195.811 13.6413 196.259 13.5348C196.706 13.4283 197.162 13.3473 197.627 13.2919C198.215 13.2237 198.692 13.1683 199.058 13.1257C199.425 13.0788 199.691 13.0043 199.857 12.902C200.024 12.7997 200.107 12.6335 200.107 12.4034V12.3587C200.107 11.8004 199.949 11.3679 199.634 11.0611C199.323 10.7543 198.858 10.6009 198.24 10.6009C197.597 10.6009 197.09 10.7436 196.719 11.0291C196.352 11.3104 196.099 11.6236 195.958 11.9688L194.162 11.5597C194.375 10.9631 194.686 10.4815 195.095 10.1151C195.509 9.74432 195.984 9.47585 196.521 9.30966C197.058 9.1392 197.622 9.05398 198.215 9.05398C198.607 9.05398 199.022 9.10085 199.461 9.1946C199.904 9.28409 200.318 9.45028 200.701 9.69318C201.089 9.93608 201.406 10.2834 201.654 10.7351C201.901 11.1825 202.024 11.7642 202.024 12.4801V19H200.158V17.6577H200.081C199.958 17.9048 199.772 18.1477 199.525 18.3864C199.278 18.625 198.96 18.8232 198.573 18.9808C198.185 19.1385 197.72 19.2173 197.179 19.2173ZM197.595 17.6832C198.123 17.6832 198.575 17.5788 198.95 17.37C199.329 17.1612 199.617 16.8885 199.813 16.5518C200.013 16.2109 200.113 15.8466 200.113 15.4588V14.1932C200.045 14.2614 199.913 14.3253 199.717 14.3849C199.525 14.4403 199.306 14.4893 199.058 14.532C198.811 14.5703 198.57 14.6065 198.336 14.6406C198.102 14.6705 197.906 14.696 197.748 14.7173C197.377 14.7642 197.039 14.843 196.732 14.9538C196.429 15.0646 196.186 15.2244 196.003 15.4332C195.824 15.6378 195.735 15.9105 195.735 16.2514C195.735 16.7244 195.909 17.0824 196.259 17.3253C196.608 17.5639 197.053 17.6832 197.595 17.6832ZM206.481 13.1705V19H204.57V5.90909H206.456V10.7798H206.577C206.807 10.2514 207.159 9.83168 207.632 9.5206C208.105 9.20952 208.723 9.05398 209.485 9.05398C210.159 9.05398 210.747 9.19247 211.25 9.46946C211.757 9.74645 212.149 10.1598 212.426 10.7095C212.707 11.255 212.848 11.9368 212.848 12.755V19H210.936V12.9851C210.936 12.2649 210.751 11.7067 210.38 11.3104C210.01 10.9098 209.494 10.7095 208.833 10.7095C208.382 10.7095 207.977 10.8054 207.619 10.9972C207.265 11.1889 206.986 11.4702 206.782 11.8409C206.581 12.2074 206.481 12.6506 206.481 13.1705ZM218.255 19.2173C217.633 19.2173 217.071 19.1023 216.568 18.8722C216.065 18.6378 215.667 18.299 215.373 17.8558C215.083 17.4126 214.938 16.8693 214.938 16.2259C214.938 15.6719 215.044 15.2159 215.257 14.858C215.471 14.5 215.758 14.2166 216.12 14.0078C216.483 13.799 216.887 13.6413 217.335 13.5348C217.782 13.4283 218.238 13.3473 218.703 13.2919C219.291 13.2237 219.768 13.1683 220.135 13.1257C220.501 13.0788 220.767 13.0043 220.934 12.902C221.1 12.7997 221.183 12.6335 221.183 12.4034V12.3587C221.183 11.8004 221.025 11.3679 220.71 11.0611C220.399 10.7543 219.934 10.6009 219.316 10.6009C218.673 10.6009 218.166 10.7436 217.795 11.0291C217.429 11.3104 217.175 11.6236 217.034 11.9688L215.238 11.5597C215.451 10.9631 215.762 10.4815 216.172 10.1151C216.585 9.74432 217.06 9.47585 217.597 9.30966C218.134 9.1392 218.699 9.05398 219.291 9.05398C219.683 9.05398 220.098 9.10085 220.537 9.1946C220.98 9.28409 221.394 9.45028 221.777 9.69318C222.165 9.93608 222.483 10.2834 222.73 10.7351C222.977 11.1825 223.1 11.7642 223.1 12.4801V19H221.234V17.6577H221.157C221.034 17.9048 220.848 18.1477 220.601 18.3864C220.354 18.625 220.037 18.8232 219.649 18.9808C219.261 19.1385 218.797 19.2173 218.255 19.2173ZM218.671 17.6832C219.199 17.6832 219.651 17.5788 220.026 17.37C220.405 17.1612 220.693 16.8885 220.889 16.5518C221.089 16.2109 221.189 15.8466 221.189 15.4588V14.1932C221.121 14.2614 220.989 14.3253 220.793 14.3849C220.601 14.4403 220.382 14.4893 220.135 14.532C219.887 14.5703 219.647 14.6065 219.412 14.6406C219.178 14.6705 218.982 14.696 218.824 14.7173C218.453 14.7642 218.115 14.843 217.808 14.9538C217.505 15.0646 217.262 15.2244 217.079 15.4332C216.9 15.6378 216.811 15.9105 216.811 16.2514C216.811 16.7244 216.985 17.0824 217.335 17.3253C217.684 17.5639 218.13 17.6832 218.671 17.6832ZM227.557 5.90909V19H225.646V5.90909H227.557Z" fill="white"/>
</svg>
