<svg width="688" height="202" viewBox="0 0 688 202" fill="none" xmlns="http://www.w3.org/2000/svg">
<path d="M0.333333 106.05C0.333333 111.941 5.10896 116.717 11 116.717C16.891 116.717 21.6667 111.941 21.6667 106.05C21.6667 100.159 16.891 95.3832 11 95.3832C5.10896 95.3832 0.333333 100.159 0.333333 106.05ZM130.5 196L131.029 194.071L130.5 196ZM577.728 153.507L577.17 151.587L577.728 153.507ZM687.5 61L666.056 69.5728L684.202 83.8574L687.5 61ZM11 106.05C9.47451 107.343 9.47497 107.344 9.47566 107.345C9.47621 107.345 9.47715 107.346 9.47826 107.348C9.48047 107.35 9.48364 107.354 9.48776 107.359C9.49602 107.369 9.5081 107.383 9.52397 107.401C9.55571 107.439 9.60263 107.494 9.66445 107.566C9.78809 107.71 9.97135 107.923 10.2121 108.201C10.6936 108.756 11.405 109.57 12.3293 110.61C14.1779 112.69 16.8784 115.675 20.294 119.303C27.1237 126.559 36.82 136.395 48.2876 146.719C71.1513 167.303 101.322 190.073 129.971 197.929L131.029 194.071C103.346 186.48 73.7673 164.276 50.9639 143.746C39.5978 133.513 29.9813 123.758 23.2065 116.562C19.8199 112.964 17.1453 110.007 15.3193 107.953C14.4063 106.925 13.7056 106.124 13.2342 105.58C12.9986 105.308 12.8202 105.101 12.7014 104.962C12.642 104.893 12.5974 104.841 12.568 104.806C12.5533 104.789 12.5424 104.776 12.5353 104.768C12.5318 104.764 12.5292 104.761 12.5275 104.759C12.5267 104.758 12.5262 104.757 12.5258 104.757C12.5255 104.757 12.5255 104.756 11 106.05ZM384.623 36.9005C404.955 30.2374 422.803 35.1614 439.357 46.2455C456 57.3892 471.178 74.6591 485.985 92.4264C500.704 110.088 515.087 128.285 529.957 140.793C544.858 153.326 560.706 160.536 578.286 155.428L577.17 151.587C561.488 156.144 547.023 149.921 532.532 137.732C518.009 125.516 503.921 107.7 489.058 89.8655C474.283 72.1372 458.77 54.4295 441.582 42.9218C424.306 31.3545 405.184 25.9532 383.377 33.0994L384.623 36.9005ZM578.286 155.428C598.344 149.599 618.524 135.519 635.976 120.16C653.463 104.771 668.38 87.9465 677.907 76.4188L674.824 73.8706C665.371 85.3087 650.604 101.96 633.334 117.158C616.03 132.386 596.381 146.004 577.17 151.587L578.286 155.428ZM383.377 33.0994C361.847 40.1549 342.264 55.8865 323.329 74.7523C313.847 84.2002 304.482 94.4814 295.09 104.918C285.686 115.367 276.261 125.966 266.61 136.108C227.916 176.774 186.372 209.247 131.029 194.071L129.971 197.929C187.729 213.767 230.797 179.549 269.508 138.866C279.208 128.671 288.683 118.017 298.063 107.594C307.454 97.1586 316.755 86.9494 326.152 77.5859C344.978 58.8291 364.014 43.6543 384.623 36.9005L383.377 33.0994Z" fill="white"/>
<path d="M491.657 188.657L487.414 192.9C487.228 193.086 487.008 193.233 486.766 193.334C486.523 193.434 486.263 193.486 486.001 193.486C485.738 193.486 485.478 193.434 485.235 193.334C484.993 193.233 484.773 193.086 484.587 192.9L480.343 188.657C479.224 187.538 478.462 186.113 478.154 184.561C477.845 183.009 478.003 181.401 478.609 179.939C479.215 178.477 480.24 177.228 481.555 176.349C482.871 175.469 484.418 175 486 175C487.582 175 489.129 175.469 490.445 176.349C491.76 177.228 492.785 178.477 493.391 179.939C493.997 181.401 494.155 183.009 493.846 184.561C493.538 186.113 492.776 187.538 491.657 188.657V188.657Z" stroke="white" stroke-width="2" stroke-linecap="round" stroke-linejoin="round"/>
<path d="M488.121 185.121C488.684 184.559 489 183.796 489 183C489 182.204 488.684 181.441 488.121 180.879C487.559 180.316 486.796 180 486 180C485.204 180 484.441 180.316 483.879 180.879C483.316 181.441 483 182.204 483 183C483 183.796 483.316 184.559 483.879 185.121C484.441 185.684 485.204 186 486 186C486.796 186 487.559 185.684 488.121 185.121Z" stroke="white" stroke-width="2" stroke-linecap="round" stroke-linejoin="round"/>
<path d="M509.438 191V177.909H511.413V189.3H517.345V191H509.438ZM523.581 191.198C522.66 191.198 521.857 190.987 521.171 190.565C520.485 190.143 519.952 189.553 519.573 188.795C519.194 188.036 519.004 187.15 519.004 186.136C519.004 185.117 519.194 184.227 519.573 183.464C519.952 182.701 520.485 182.109 521.171 181.687C521.857 181.265 522.66 181.054 523.581 181.054C524.501 181.054 525.304 181.265 525.99 181.687C526.676 182.109 527.209 182.701 527.588 183.464C527.968 184.227 528.157 185.117 528.157 186.136C528.157 187.15 527.968 188.036 527.588 188.795C527.209 189.553 526.676 190.143 525.99 190.565C525.304 190.987 524.501 191.198 523.581 191.198ZM523.587 189.594C524.184 189.594 524.678 189.436 525.07 189.121C525.462 188.805 525.752 188.386 525.939 187.862C526.131 187.337 526.227 186.76 526.227 186.129C526.227 185.503 526.131 184.928 525.939 184.403C525.752 183.875 525.462 183.451 525.07 183.131C524.678 182.812 524.184 182.652 523.587 182.652C522.986 182.652 522.488 182.812 522.091 183.131C521.699 183.451 521.407 183.875 521.216 184.403C521.028 184.928 520.934 185.503 520.934 186.129C520.934 186.76 521.028 187.337 521.216 187.862C521.407 188.386 521.699 188.805 522.091 189.121C522.488 189.436 522.986 189.594 523.587 189.594ZM536.51 186.928V181.182H538.428V191H536.548V189.3H536.446C536.22 189.824 535.858 190.261 535.36 190.61C534.865 190.955 534.249 191.128 533.512 191.128C532.882 191.128 532.323 190.989 531.838 190.712C531.356 190.431 530.977 190.016 530.7 189.466C530.427 188.916 530.291 188.237 530.291 187.427V181.182H532.202V187.197C532.202 187.866 532.387 188.398 532.758 188.795C533.129 189.191 533.61 189.389 534.203 189.389C534.561 189.389 534.916 189.3 535.27 189.121C535.628 188.942 535.924 188.671 536.159 188.309C536.397 187.947 536.514 187.487 536.51 186.928ZM549.395 181.182L545.835 191H543.789L540.222 181.182H542.274L544.761 188.737H544.863L547.343 181.182H549.395ZM551.191 191V181.182H553.038V182.741H553.141C553.32 182.213 553.635 181.798 554.087 181.495C554.543 181.188 555.058 181.035 555.634 181.035C555.753 181.035 555.893 181.039 556.055 181.048C556.222 181.056 556.352 181.067 556.445 181.08V182.908C556.369 182.886 556.232 182.863 556.036 182.837C555.84 182.808 555.644 182.793 555.448 182.793C554.996 182.793 554.594 182.888 554.24 183.08C553.891 183.268 553.614 183.53 553.409 183.866C553.205 184.199 553.102 184.578 553.102 185.004V191H551.191ZM561.979 191.198C561.012 191.198 560.179 190.991 559.48 190.578C558.785 190.161 558.248 189.575 557.869 188.82C557.494 188.062 557.307 187.173 557.307 186.155C557.307 185.149 557.494 184.263 557.869 183.496C558.248 182.729 558.777 182.13 559.454 181.7C560.136 181.269 560.933 181.054 561.845 181.054C562.399 181.054 562.936 181.146 563.456 181.329C563.976 181.512 564.442 181.8 564.856 182.192C565.269 182.584 565.595 183.093 565.834 183.719C566.072 184.342 566.192 185.098 566.192 185.989V186.666H558.387V185.234H564.319C564.319 184.732 564.216 184.286 564.012 183.898C563.807 183.506 563.52 183.197 563.149 182.972C562.782 182.746 562.352 182.633 561.858 182.633C561.321 182.633 560.852 182.765 560.452 183.029C560.055 183.289 559.748 183.63 559.531 184.052C559.318 184.469 559.211 184.923 559.211 185.413V186.532C559.211 187.188 559.327 187.746 559.557 188.207C559.791 188.667 560.117 189.018 560.535 189.261C560.952 189.5 561.44 189.619 561.998 189.619C562.361 189.619 562.691 189.568 562.989 189.466C563.287 189.359 563.545 189.202 563.763 188.993C563.98 188.784 564.146 188.526 564.261 188.219L566.07 188.545C565.925 189.078 565.665 189.545 565.29 189.945C564.92 190.342 564.453 190.651 563.89 190.872C563.332 191.089 562.695 191.198 561.979 191.198ZM573.229 177.909H575.626L579.794 188.085H579.947L584.115 177.909H586.512V191H584.633V181.527H584.511L580.65 190.981H579.091L575.23 181.521H575.108V191H573.229V177.909ZM595.45 186.928V181.182H597.367V191H595.488V189.3H595.386C595.16 189.824 594.798 190.261 594.299 190.61C593.805 190.955 593.189 191.128 592.452 191.128C591.821 191.128 591.263 190.989 590.777 190.712C590.295 190.431 589.916 190.016 589.639 189.466C589.366 188.916 589.23 188.237 589.23 187.427V181.182H591.141V187.197C591.141 187.866 591.327 188.398 591.697 188.795C592.068 189.191 592.55 189.389 593.142 189.389C593.5 189.389 593.856 189.3 594.21 189.121C594.567 188.942 594.864 188.671 595.098 188.309C595.337 187.947 595.454 187.487 595.45 186.928ZM607.292 183.579L605.56 183.886C605.488 183.664 605.373 183.453 605.215 183.253C605.062 183.053 604.853 182.888 604.589 182.761C604.324 182.633 603.994 182.569 603.598 182.569C603.057 182.569 602.605 182.69 602.243 182.933C601.881 183.172 601.699 183.481 601.699 183.86C601.699 184.188 601.821 184.452 602.064 184.653C602.307 184.853 602.699 185.017 603.24 185.145L604.8 185.503C605.703 185.712 606.376 186.033 606.819 186.468C607.263 186.903 607.484 187.467 607.484 188.162C607.484 188.75 607.314 189.274 606.973 189.734C606.636 190.19 606.165 190.548 605.56 190.808C604.959 191.068 604.263 191.198 603.47 191.198C602.371 191.198 601.474 190.964 600.779 190.495C600.084 190.022 599.658 189.351 599.501 188.482L601.348 188.2C601.463 188.682 601.699 189.046 602.057 189.293C602.415 189.536 602.882 189.658 603.457 189.658C604.084 189.658 604.584 189.528 604.959 189.268C605.334 189.004 605.522 188.682 605.522 188.303C605.522 187.996 605.407 187.738 605.177 187.529C604.951 187.32 604.604 187.163 604.135 187.056L602.473 186.692C601.557 186.483 600.879 186.151 600.44 185.695C600.006 185.239 599.788 184.661 599.788 183.962C599.788 183.383 599.95 182.876 600.274 182.441C600.598 182.006 601.045 181.668 601.616 181.425C602.187 181.178 602.841 181.054 603.579 181.054C604.64 181.054 605.475 181.284 606.084 181.744C606.694 182.2 607.096 182.812 607.292 183.579ZM613.817 191.198C612.85 191.198 612.017 190.991 611.318 190.578C610.623 190.161 610.086 189.575 609.707 188.82C609.332 188.062 609.145 187.173 609.145 186.155C609.145 185.149 609.332 184.263 609.707 183.496C610.086 182.729 610.615 182.13 611.292 181.7C611.974 181.269 612.771 181.054 613.683 181.054C614.237 181.054 614.774 181.146 615.294 181.329C615.814 181.512 616.28 181.8 616.694 182.192C617.107 182.584 617.433 183.093 617.672 183.719C617.91 184.342 618.029 185.098 618.029 185.989V186.666H610.225V185.234H616.157C616.157 184.732 616.054 184.286 615.85 183.898C615.645 183.506 615.358 183.197 614.987 182.972C614.62 182.746 614.19 182.633 613.696 182.633C613.159 182.633 612.69 182.765 612.289 183.029C611.893 183.289 611.586 183.63 611.369 184.052C611.156 184.469 611.049 184.923 611.049 185.413V186.532C611.049 187.188 611.164 187.746 611.395 188.207C611.629 188.667 611.955 189.018 612.373 189.261C612.79 189.5 613.278 189.619 613.836 189.619C614.199 189.619 614.529 189.568 614.827 189.466C615.125 189.359 615.383 189.202 615.6 188.993C615.818 188.784 615.984 188.526 616.099 188.219L617.908 188.545C617.763 189.078 617.503 189.545 617.128 189.945C616.757 190.342 616.291 190.651 615.728 190.872C615.17 191.089 614.533 191.198 613.817 191.198ZM626.369 186.928V181.182H628.287V191H626.408V189.3H626.306C626.08 189.824 625.718 190.261 625.219 190.61C624.725 190.955 624.109 191.128 623.372 191.128C622.741 191.128 622.183 190.989 621.697 190.712C621.215 190.431 620.836 190.016 620.559 189.466C620.286 188.916 620.15 188.237 620.15 187.427V181.182H622.061V187.197C622.061 187.866 622.247 188.398 622.617 188.795C622.988 189.191 623.47 189.389 624.062 189.389C624.42 189.389 624.776 189.3 625.129 189.121C625.487 188.942 625.784 188.671 626.018 188.309C626.257 187.947 626.374 187.487 626.369 186.928ZM630.855 191V181.182H632.69V182.78H632.811C633.016 182.239 633.35 181.817 633.815 181.514C634.279 181.207 634.835 181.054 635.483 181.054C636.139 181.054 636.689 181.207 637.132 181.514C637.58 181.821 637.91 182.243 638.123 182.78H638.225C638.46 182.256 638.832 181.838 639.344 181.527C639.855 181.212 640.464 181.054 641.172 181.054C642.062 181.054 642.789 181.333 643.352 181.891C643.918 182.45 644.202 183.291 644.202 184.416V191H642.29V184.595C642.29 183.93 642.109 183.449 641.747 183.151C641.385 182.852 640.952 182.703 640.45 182.703C639.827 182.703 639.344 182.895 638.999 183.278C638.653 183.658 638.481 184.146 638.481 184.742V191H636.576V184.474C636.576 183.941 636.41 183.513 636.077 183.189C635.745 182.865 635.313 182.703 634.78 182.703C634.418 182.703 634.083 182.799 633.776 182.991C633.474 183.178 633.229 183.44 633.041 183.777C632.858 184.114 632.766 184.504 632.766 184.947V191H630.855Z" fill="white"/>
<path d="M340.657 16.657L336.414 20.9C336.228 21.0858 336.008 21.2331 335.766 21.3336C335.523 21.4342 335.263 21.4859 335.001 21.4859C334.738 21.4859 334.478 21.4342 334.235 21.3336C333.993 21.2331 333.773 21.0858 333.587 20.9L329.343 16.657C328.224 15.5382 327.462 14.1127 327.154 12.5609C326.845 11.009 327.003 9.40053 327.609 7.93874C328.215 6.47696 329.24 5.22755 330.555 4.34852C331.871 3.46949 333.418 3.00031 335 3.00031C336.582 3.00031 338.129 3.46949 339.445 4.34852C340.76 5.22755 341.785 6.47696 342.391 7.93874C342.997 9.40053 343.155 11.009 342.846 12.5609C342.538 14.1127 341.776 15.5382 340.657 16.657V16.657Z" stroke="white" stroke-width="2" stroke-linecap="round" stroke-linejoin="round"/>
<path d="M337.121 13.1213C337.684 12.5587 338 11.7956 338 11C338 10.2044 337.684 9.44129 337.121 8.87868C336.559 8.31607 335.796 8 335 8C334.204 8 333.441 8.31607 332.879 8.87868C332.316 9.44129 332 10.2044 332 11C332 11.7956 332.316 12.5587 332.879 13.1213C333.441 13.6839 334.204 14 335 14C335.796 14 336.559 13.6839 337.121 13.1213Z" stroke="white" stroke-width="2" stroke-linecap="round" stroke-linejoin="round"/>
<path d="M358.438 19V5.90909H366.646V7.60938H360.413V11.598H366.217V13.2919H360.413V17.2997H366.722V19H358.438ZM369.131 19V9.18182H371.042V19H369.131ZM370.096 7.6669C369.763 7.6669 369.478 7.55611 369.239 7.33452C369.005 7.10866 368.888 6.8402 368.888 6.52912C368.888 6.21378 369.005 5.94531 369.239 5.72372C369.478 5.49787 369.763 5.38494 370.096 5.38494C370.428 5.38494 370.711 5.49787 370.946 5.72372C371.184 5.94531 371.304 6.21378 371.304 6.52912C371.304 6.8402 371.184 7.10866 370.946 7.33452C370.711 7.55611 370.428 7.6669 370.096 7.6669ZM378.286 9.18182V10.7159H372.737V9.18182H378.286ZM374.259 19V8.04403C374.259 7.4304 374.393 6.92116 374.661 6.51634C374.93 6.10724 375.286 5.80256 375.729 5.60227C376.172 5.39773 376.653 5.29545 377.173 5.29545C377.557 5.29545 377.885 5.32741 378.158 5.39134C378.43 5.45099 378.633 5.50639 378.765 5.55753L378.317 7.1044C378.228 7.07883 378.113 7.04901 377.972 7.01491C377.832 6.97656 377.661 6.95739 377.461 6.95739C376.996 6.95739 376.664 7.07244 376.464 7.30256C376.268 7.53267 376.17 7.86506 376.17 8.29972V19H374.259ZM384.93 9.18182V10.7159H379.382V9.18182H384.93ZM380.903 19V8.04403C380.903 7.4304 381.037 6.92116 381.306 6.51634C381.574 6.10724 381.93 5.80256 382.373 5.60227C382.816 5.39773 383.298 5.29545 383.818 5.29545C384.201 5.29545 384.529 5.32741 384.802 5.39134C385.075 5.45099 385.277 5.50639 385.409 5.55753L384.962 7.1044C384.873 7.07883 384.757 7.04901 384.617 7.01491C384.476 6.97656 384.306 6.95739 384.105 6.95739C383.641 6.95739 383.309 7.07244 383.108 7.30256C382.912 7.53267 382.814 7.86506 382.814 8.29972V19H380.903ZM390.747 19.1982C389.779 19.1982 388.946 18.9915 388.248 18.5781C387.553 18.1605 387.016 17.5746 386.637 16.8203C386.262 16.0618 386.074 15.1733 386.074 14.1548C386.074 13.1491 386.262 12.2628 386.637 11.4957C387.016 10.7287 387.544 10.13 388.222 9.69957C388.904 9.26918 389.701 9.05398 390.613 9.05398C391.167 9.05398 391.703 9.1456 392.223 9.32884C392.743 9.51207 393.21 9.79972 393.623 10.1918C394.037 10.5838 394.363 11.093 394.601 11.7195C394.84 12.3416 394.959 13.098 394.959 13.9886V14.6662H387.154V13.2344H393.086C393.086 12.7315 392.984 12.2862 392.779 11.8984C392.575 11.5064 392.287 11.1974 391.917 10.9716C391.55 10.7457 391.12 10.6328 390.625 10.6328C390.088 10.6328 389.62 10.7649 389.219 11.0291C388.823 11.2891 388.516 11.63 388.299 12.0518C388.086 12.4695 387.979 12.9233 387.979 13.4134V14.532C387.979 15.1882 388.094 15.7464 388.324 16.2067C388.559 16.6669 388.885 17.0185 389.302 17.2614C389.72 17.5 390.208 17.6193 390.766 17.6193C391.128 17.6193 391.458 17.5682 391.757 17.4659C392.055 17.3594 392.313 17.2017 392.53 16.9929C392.748 16.7841 392.914 16.5263 393.029 16.2195L394.838 16.5455C394.693 17.0781 394.433 17.5447 394.058 17.9453C393.687 18.3416 393.221 18.6506 392.658 18.8722C392.1 19.0895 391.463 19.1982 390.747 19.1982ZM398.991 5.90909V19H397.08V5.90909H398.991ZM405.834 7.60938V5.90909H415.965V7.60938H411.881V19H409.912V7.60938H405.834ZM420.762 19.1982C419.842 19.1982 419.039 18.9872 418.352 18.5653C417.666 18.1435 417.134 17.5533 416.754 16.7947C416.375 16.0362 416.186 15.1499 416.186 14.1357C416.186 13.1172 416.375 12.2266 416.754 11.4638C417.134 10.701 417.666 10.1087 418.352 9.68679C419.039 9.26491 419.842 9.05398 420.762 9.05398C421.683 9.05398 422.486 9.26491 423.172 9.68679C423.858 10.1087 424.391 10.701 424.77 11.4638C425.149 12.2266 425.339 13.1172 425.339 14.1357C425.339 15.1499 425.149 16.0362 424.77 16.7947C424.391 17.5533 423.858 18.1435 423.172 18.5653C422.486 18.9872 421.683 19.1982 420.762 19.1982ZM420.769 17.5938C421.365 17.5938 421.86 17.4361 422.252 17.1207C422.644 16.8054 422.933 16.3857 423.121 15.8615C423.313 15.3374 423.409 14.7599 423.409 14.1293C423.409 13.5028 423.313 12.9276 423.121 12.4034C422.933 11.875 422.644 11.451 422.252 11.1314C421.86 10.8118 421.365 10.652 420.769 10.652C420.168 10.652 419.669 10.8118 419.273 11.1314C418.881 11.451 418.589 11.875 418.397 12.4034C418.21 12.9276 418.116 13.5028 418.116 14.1293C418.116 14.7599 418.21 15.3374 418.397 15.8615C418.589 16.3857 418.881 16.8054 419.273 17.1207C419.669 17.4361 420.168 17.5938 420.769 17.5938ZM429.302 19L426.413 9.18182H428.388L430.312 16.392H430.408L432.338 9.18182H434.313L436.231 16.3601H436.327L438.238 9.18182H440.213L437.33 19H435.381L433.387 11.9112H433.24L431.245 19H429.302ZM445.96 19.1982C444.992 19.1982 444.159 18.9915 443.46 18.5781C442.766 18.1605 442.229 17.5746 441.85 16.8203C441.475 16.0618 441.287 15.1733 441.287 14.1548C441.287 13.1491 441.475 12.2628 441.85 11.4957C442.229 10.7287 442.757 10.13 443.435 9.69957C444.117 9.26918 444.914 9.05398 445.825 9.05398C446.379 9.05398 446.916 9.1456 447.436 9.32884C447.956 9.51207 448.423 9.79972 448.836 10.1918C449.249 10.5838 449.575 11.093 449.814 11.7195C450.053 12.3416 450.172 13.098 450.172 13.9886V14.6662H442.367V13.2344H448.299C448.299 12.7315 448.197 12.2862 447.992 11.8984C447.788 11.5064 447.5 11.1974 447.129 10.9716C446.763 10.7457 446.333 10.6328 445.838 10.6328C445.301 10.6328 444.833 10.7649 444.432 11.0291C444.036 11.2891 443.729 11.63 443.512 12.0518C443.298 12.4695 443.192 12.9233 443.192 13.4134V14.532C443.192 15.1882 443.307 15.7464 443.537 16.2067C443.771 16.6669 444.097 17.0185 444.515 17.2614C444.933 17.5 445.421 17.6193 445.979 17.6193C446.341 17.6193 446.671 17.5682 446.97 17.4659C447.268 17.3594 447.526 17.2017 447.743 16.9929C447.96 16.7841 448.127 16.5263 448.242 16.2195L450.051 16.5455C449.906 17.0781 449.646 17.5447 449.271 17.9453C448.9 18.3416 448.433 18.6506 447.871 18.8722C447.313 19.0895 446.676 19.1982 445.96 19.1982ZM452.293 19V9.18182H454.14V10.7415H454.242C454.421 10.2131 454.737 9.79758 455.188 9.49503C455.644 9.18821 456.16 9.0348 456.735 9.0348C456.854 9.0348 456.995 9.03906 457.157 9.04759C457.323 9.05611 457.453 9.06676 457.547 9.07955V10.9077C457.47 10.8864 457.334 10.8629 457.138 10.8374C456.942 10.8075 456.746 10.7926 456.55 10.7926C456.098 10.7926 455.695 10.8885 455.342 11.0803C454.992 11.2678 454.715 11.5298 454.511 11.8665C454.306 12.1989 454.204 12.5781 454.204 13.0043V19H452.293Z" fill="white"/>
</svg>
